<svg width="60" height="60" viewBox="0 0 60 60" fill="none" xmlns="http://www.w3.org/2000/svg">
    <path fill-rule="evenodd" clip-rule="evenodd" d="M0 29.52C0 13.2 13.2 0 29.52 0C45.84 0 59.04 13.2 59.04 29.52C59.04 45.84 45.84 59.04 29.52 59.04C13.2 59.04 0 45.84 0 29.52ZM10.38 49.98C15.36 54.72 22.14 57.6 29.52 57.6C36.9 57.6 43.68 54.66 48.66 49.98C48.48 43.56 43.32 37.98 35.76 35.88C38.76 33.9 40.8 30.42 40.8 26.52C40.8 20.34 35.82 15.24 29.58 15.24C23.34 15.24 18.3 20.34 18.3 26.52C18.3 30.42 20.28 33.84 23.34 35.88C15.72 37.98 10.56 43.56 10.38 49.98Z" fill="#53627C" fill-opacity="0.85"/>
</svg>
