<?xml version="1.0" encoding="utf-8"?>
<!-- Generator: Adobe Illustrator 18.1.1, SVG Export Plug-In . SVG Version: 6.00 Build 0)  -->
<svg version="1.1" id="Layer_1" xmlns="http://www.w3.org/2000/svg" xmlns:xlink="http://www.w3.org/1999/xlink" x="0px" y="0px"
	 viewBox="-169 271 60 60" enable-background="new -169 271 60 60" xml:space="preserve">
<g id="Layer_3">
	<path fill="#FFFFFF" d="M-139,271c-16.5,0-30,13.5-30,30c0,7.7,2.9,15.1,8.2,20.7c0,0,0,0,0,0h0c0,0,0,0,0,0s0,0,0,0c0,0,0,0,0,0
		c0,0,0,0,0,0l0,0c0,0,0,0,0,0c0,0,0,0,0,0c0,0,0,0,0,0l0,0c0,0,0,0,0,0c0,0,0,0,0,0l0,0c0,0,0,0,0,0c0,0,0,0,0,0c0,0,0,0,0,0
		c5.8,5.8,13.9,9.3,21.7,9.3c7.9,0,16-3.5,21.7-9.3c0,0,0,0,0,0c5.3-5.6,8.3-12.9,8.3-20.7C-109,284.5-122.5,271-139,271z
		 M-118.2,319.7c-1.4-0.7-4.3-1.8-9.2-3.5c-1.9-0.7-3.8-1.3-5.6-2v-5c1.2-0.7,3.5-2.6,3.8-7.4c0.4-0.2,0.8-0.6,1.1-1.1
		c0.3-0.6,0.5-1.4,0.5-2.2c0-1.5-0.5-2.6-1.4-3.2c0,0,0-0.1,0-0.1c0.6-1.9,1.7-5.4,1-8.3c-0.8-3.4-5.5-4.5-9.2-4.5
		c-3.4,0-7.5,1-8.8,3.7c-1.8-0.1-2.7,0.6-3.2,1.2c-1.5,2-0.5,5.9,0.1,7.9c0,0,0,0.1,0,0.1c-0.8,0.5-1.4,1.7-1.4,3.2
		c0,1.6,0.6,2.8,1.6,3.3c0.2,4.8,2.6,6.7,3.8,7.4v5c-1.6,0.6-3.4,1.2-5.1,1.7c-3.7,1.2-7.3,2.4-9.7,3.8c-4.6-5.1-7.2-11.8-7.2-18.7
		c0-15.4,12.6-28,28-28c15.4,0,28,12.6,28,28C-111,307.9-113.5,314.6-118.2,319.7z"/>
</g>
<g id="nyt_x5F_exporter_x5F_info" display="none">
</g>
</svg>
